<svg xmlns="http://www.w3.org/2000/svg" xmlns:xlink="http://www.w3.org/1999/xlink" viewBox="0 0 30 30" fill="#FF798A">
  <path d="M13.984375 -0.013671875 A 1.0001 1.0001 0 0 0 13 1L13 4 A 1.0001 1.0001 0 1 0 15 4L15 1 A 1.0001 1.0001 0 0 0 13.984375 -0.013671875 z M 20.177734 0.9921875 A 1.0001 1.0001 0 0 0 19.634766 1.1386719C19.634766 1.1386719 17.350388 2.4279831 16.59375 5.0273438C16.363996 5.8170135 16.040404 6.576607 15.644531 7.1054688C14.913286 7.0114796 14.286422 7 14 7C13 7 8 7 8 11C8 11.818 8.0956719 12.85 8.2636719 14L9 14C9.552 14 10 14.447 10 15C10 15.553 9.552 16 9 16L8.6054688 16C8.9184688 17.615 9.3354531 19.344 9.8144531 21L11 21C11.552 21 12 21.447 12 22C12 22.553 11.552 23 11 23L10.4375 23C11.5625 26.358 12.89 29 14 29C15.442 29 17.252859 24.547609 18.505859 19.849609C18.209859 19.676609 18 19.368 18 19C18 18.46 18.430797 18.026813 18.966797 18.007812C19.292797 16.606813 19.556328 15.235 19.736328 14L17 14C16.448 14 16 13.553 16 13C16 12.447 16.448 12 17 12L19.960938 12C19.985938 11.641 20 11.305 20 11C20 9.1528689 18.931731 8.1639791 17.685547 7.6289062C18.057798 6.9673669 18.317388 6.2605707 18.513672 5.5859375C19.011033 3.8772981 20.648438 2.8613281 20.648438 2.8613281 A 1.0001 1.0001 0 0 0 20.177734 0.9921875 z M 7.9648438 0.99414062 A 1.0001 1.0001 0 0 0 7.5527344 2.8945312C7.5527344 2.8945312 9.1353833 3.7693092 9.390625 5.1777344 A 1.0001 1.0001 0 1 0 11.357422 4.8222656C10.890664 2.2466908 8.4472656 1.1054688 8.4472656 1.1054688 A 1.0001 1.0001 0 0 0 7.9648438 0.99414062 z" fill="#FF798A" />
</svg>