<svg xmlns="http://www.w3.org/2000/svg" xmlns:xlink="http://www.w3.org/1999/xlink" viewBox="0 0 50 50" fill="#FFFFFF">
  <path d="M25.996094 48C13.3125 48 2.992188 37.683594 2.992188 25C2.992188 12.316406 13.3125 2 25.996094 2C31.742188 2 37.242188 4.128906 41.488281 7.996094L42.261719 8.703125L34.675781 16.289063L33.972656 15.6875C31.746094 13.78125 28.914063 12.730469 25.996094 12.730469C19.230469 12.730469 13.722656 18.234375 13.722656 25C13.722656 31.765625 19.230469 37.269531 25.996094 37.269531C30.875 37.269531 34.730469 34.777344 36.546875 30.53125L24.996094 30.53125L24.996094 20.175781L47.546875 20.207031L47.714844 21C48.890625 26.582031 47.949219 34.792969 43.183594 40.667969C39.238281 45.53125 33.457031 48 25.996094 48Z" fill="#FFFFFF" />
</svg>