<svg xmlns="http://www.w3.org/2000/svg" xmlns:xlink="http://www.w3.org/1999/xlink" viewBox="0 0 24 24" fill="#FF798A">
  <path d="M16.517578 1.9707031 A 1.0001 1.0001 0 0 0 15.623047 3.3769531C15.988315 4.2289938 16.321191 5.5094495 15.496094 6.9355469C13.957635 5.6917415 12.460865 5.2169208 11.630859 5.0390625C10.780859 4.8690625 9.9202344 5.2502344 9.4902344 5.9902344C8.2902344 8.0502344 7.2701563 9.8291406 6.4101562 11.369141C6.9301562 11.689141 7.8202344 12.310313 8.7402344 13.320312C9.1102344 13.730313 9.0796875 14.360234 8.6796875 14.740234C8.4796875 14.910234 8.24 15 8 15C7.73 15 7.4597656 14.889687 7.2597656 14.679688C6.5397656 13.889688 5.8494531 13.379141 5.4394531 13.119141C1.3294531 20.639141 1.8198437 21.140156 2.3398438 21.660156C2.5198438 21.830156 2.689375 22 3.109375 22C4.149375 22 6.6894531 20.990312 14.439453 16.570312C14.199453 16.090313 13.569062 14.980937 12.289062 13.710938C11.899062 13.320938 11.899062 12.679063 12.289062 12.289062C12.679062 11.899062 13.310937 11.899062 13.710938 12.289062C15.080938 13.659062 15.819922 14.880313 16.169922 15.570312C16.759922 15.240313 17.369766 14.879766 18.009766 14.509766C18.759766 14.079766 19.140937 13.209375 18.960938 12.359375C18.783312 11.538913 18.302516 10.053464 17.072266 8.5195312C18.508986 7.7477708 19.835052 7.9785761 20.6875 8.2617188 A 1.000256 1.000256 0 0 0 21.318359 6.3632812C20.811419 6.1948996 20.147294 6.0475314 19.396484 6.0175781L20.71875 4.6953125 A 1.0001 1.0001 0 0 0 19.992188 2.9785156 A 1.0001 1.0001 0 0 0 19.304688 3.28125L17.957031 4.6289062C17.893518 3.8264461 17.688882 3.117001 17.462891 2.5898438 A 1.0001 1.0001 0 0 0 16.517578 1.9707031 z" fill="#FF798A" />
</svg>